<?xml version="1.0" standalone="no"?><!DOCTYPE svg PUBLIC "-//W3C//DTD SVG 1.1//EN" "http://www.w3.org/Graphics/SVG/1.1/DTD/svg11.dtd"><svg t="1544110644780" class="icon" style="" viewBox="0 0 1024 1024" version="1.1" xmlns="http://www.w3.org/2000/svg" p-id="2327" xmlns:xlink="http://www.w3.org/1999/xlink" width="200" height="200"><defs><style type="text/css"></style></defs><path d="M510.663954 534.754428c-52.603735 0-95.190261-42.475202-95.190261-94.899858 0-52.363298 42.643887-94.839899 95.190261-94.839899 52.53618 0 95.238228 42.476601 95.238228 94.839899C605.902182 492.279227 563.257096 534.754428 510.663954 534.754428M508.446457 66.464529c-93.714661 0-187.416532 35.821113-258.942837 107.46334-143.000246 143.284453-143.000246 375.494415 0 518.721107l264.686942 265.135638 258.876881-259.333572c142.999646-143.285452 142.999646-375.495414 0-518.726503l-5.744105-5.738509C695.797034 102.285642 602.148527 66.464529 508.446457 66.464529M510.663954 598.210205c87.450509 0 158.578084-71.021248 158.578084-158.355835 0-87.331989-71.127576-158.352237-158.578084-158.352237-87.456504 0-158.530716 71.020248-158.530716 158.352237C352.133238 527.188958 423.260413 598.210205 510.663954 598.210205M508.446457 66.464529l0 63.455377c80.85598 0 156.87324 31.556405 214.073258 88.868547l5.744105 5.743506c57.200018 57.316539 88.699662 133.445124 88.699662 214.46959 0 81.023866-31.499443 157.161045-88.699662 214.471988L514.132602 867.947723 294.25308 647.676467c-57.143057-57.200018-88.646098-133.390161-88.646098-214.361063 0-80.961908 31.503041-157.215008 88.699662-214.46899 57.200618-57.316939 133.218278-88.872944 214.139813-88.872944L508.446457 66.464529" p-id="2328"></path></svg>